HIERARCHY
ROOT hip
{
	OFFSET 0.000000 0.000000 0.000000 
	CHANNELS 6 Xposition Yposition Zposition Xrotation Zrotation Yrotation
	JOINT abdomen
	{
		OFFSET 0.000000 3.402643 0.000000 
		CHANNELS 3 Xrotation Zrotation Yrotation
		JOINT chest
		{
			OFFSET 0.000000 8.438565 -0.680529 
			CHANNELS 3 Xrotation Zrotation Yrotation
			JOINT neck
			{
				OFFSET 0.000000 10.207942 -0.272212 
				CHANNELS 3 Xrotation Zrotation Yrotation
				JOINT head
				{
					OFFSET 0.000000 3.130431 0.000000 
					CHANNELS 3 Xrotation Zrotation Yrotation
					End Site
					{
						OFFSET 0.000000 3.130435 0.000000 
					}
				}
			}
			JOINT lCollar
			{
				OFFSET 3.470700 6.669187 -0.816635 
				CHANNELS 3 Yrotation Zrotation Xrotation
				JOINT lShldr
				{
					OFFSET 3.198488 0.000000 0.000000 
					CHANNELS 3 Zrotation Yrotation Xrotation
					JOINT lForeArm
					{
						OFFSET 10.139888 0.000000 0.000000 
						CHANNELS 3 Yrotation Zrotation Xrotation
						JOINT lHand
						{
							OFFSET 8.370511 0.000000 0.000000 
							CHANNELS 3 Zrotation Yrotation Xrotation
							End Site
							{
								OFFSET 4.083176 0.000000 0.000000 
							}
						}
					}
				}
			}
			JOINT rCollar
			{
				OFFSET -3.470700 6.669187 -0.816635 
				CHANNELS 3 Yrotation Zrotation Xrotation
				JOINT rShldr
				{
					OFFSET -3.198488 0.000000 0.000000 
					CHANNELS 3 Zrotation Yrotation Xrotation
					JOINT rForeArm
					{
						OFFSET -10.139888 0.000000 0.000000 
						CHANNELS 3 Yrotation Zrotation Xrotation
						JOINT rHand
						{
							OFFSET -8.370511 0.000000 0.000000 
							CHANNELS 3 Zrotation Yrotation Xrotation
							End Site
							{
								OFFSET -4.083176 0.000000 0.000000 
							}
						}
					}
				}
			}
		}
	}
	JOINT lThigh
	{
		OFFSET 5.308129 -1.633274 1.361059 
		CHANNELS 3 Xrotation Zrotation Yrotation
		JOINT lShin
		{
			OFFSET -2.041588 -20.007561 0.000000 
			CHANNELS 3 Xrotation Zrotation Yrotation
			JOINT lFoot
			{
				OFFSET 0.000000 -19.190928 -1.224953 
				CHANNELS 3 Xrotation Yrotation Zrotation
				End Site
				{
					OFFSET 0.000000 -2.449906 4.627600 
				}
			}
		}
	}
	JOINT rThigh
	{
		OFFSET -5.308129 -1.633274 1.361059 
		CHANNELS 3 Xrotation Zrotation Yrotation
		JOINT rShin
		{
			OFFSET 2.041588 -20.007561 0.000000 
			CHANNELS 3 Xrotation Zrotation Yrotation
			JOINT rFoot
			{
				OFFSET 0.000000 -19.190928 -1.224953 
				CHANNELS 3 Xrotation Yrotation Zrotation
				End Site
				{
					OFFSET 0.000000 -2.449906 4.627600 
				}
			}
		}
	}
}
MOTION
Frames: 14
Frame Time: 0.033333
-0.885926 30.551624 -0.775584 -175.417770 1.308138 -7.140368 0.000000 0.000000 0.000000 -14.434752 0.901965 6.719605 -39.475468 4.257780 0.225440 -29.070324 0.927331 -1.689548 44.848858 29.991993 -13.649973 -57.803284 -54.354633 -17.498650 -93.476059 42.119724 10.803617 81.736000 17.477472 -15.838181 -19.535748 -30.000000 9.760624 20.058016 31.948524 39.789558 -90.597115 -32.505322 -142.451874 -42.941212 -54.472790 -38.193764 21.704250 -1.892486 15.412277 5.219554 2.333468 0.989433 55.376945 -21.056952 1.677416 18.450638 2.372381 1.580124 4.516092 -1.024826 -0.699987 46.459438 -10.153987 3.351003 
-0.874358 30.949352 -0.802767 -175.188095 1.289086 -7.023214 0.000000 0.000000 0.000000 -14.976359 1.028026 6.729705 -40.732521 4.550740 0.244921 -29.232403 1.025123 -1.308734 43.973495 29.989151 -12.804694 -55.259354 -54.634026 -18.852377 -91.401321 42.859692 8.882240 81.099564 17.772591 -16.541491 -19.810488 -30.000000 9.591766 18.314768 32.105858 38.956142 -88.616478 -32.813763 -141.167770 -42.373516 -54.361702 -38.678082 22.299234 -1.453023 15.492240 5.621449 2.002351 0.893601 55.637951 -21.072117 2.366254 18.667810 2.860591 1.712240 5.178124 -1.482175 -0.771365 46.660172 -9.647613 5.468545 
-0.863891 31.325918 -0.858531 -175.209183 1.318411 -6.935345 0.000000 0.000000 0.000000 -15.374462 1.047422 6.729707 -41.770134 5.214776 0.294419 -29.006477 0.927652 -0.761777 43.200974 29.988045 -11.977290 -52.469696 -54.996181 -20.356197 -89.208893 43.041183 6.598162 81.126099 17.673559 -16.823195 -19.871637 -30.000000 9.677705 15.947817 32.309345 37.843037 -86.484413 -33.082706 -139.600204 -42.275455 -54.354187 -38.717598 23.226435 -1.179094 15.485861 5.824257 1.717603 0.831161 55.623489 -20.563793 4.032879 19.102106 3.182415 1.811295 6.227274 -1.826196 -0.767056 44.803688 -9.963515 5.459500 
-0.827454 31.721022 -0.897338 -175.042496 1.580542 -6.818919 0.000000 0.000000 0.000000 -15.964843 0.931098 6.700234 -42.365177 6.035042 0.353721 -28.588966 0.859361 -0.331994 42.468475 29.990801 -11.099014 -49.113979 -55.199287 -22.120382 -86.742081 43.010948 3.901089 81.665459 17.300108 -16.714949 -20.010370 -30.000000 9.782612 12.913927 32.691475 36.377560 -84.097282 -33.329754 -137.975540 -42.217056 -54.416382 -38.506340 23.820034 -1.227199 15.396553 6.108083 1.600636 0.781290 55.437061 -19.796001 6.125482 19.222532 3.114280 1.797923 7.496354 -1.991047 -0.697744 42.495834 -10.731656 3.790031 
-0.815144 32.164379 -0.926671 -174.638763 1.764305 -6.946666 0.000000 0.000000 0.000000 -16.706211 0.940835 6.680707 -42.635387 6.972476 0.414236 -28.407894 0.908203 0.019684 41.942661 29.996866 -10.424386 -45.481628 -54.935261 -23.951977 -84.013916 43.165066 1.050110 82.166130 16.886797 -16.691122 -19.951921 -30.000000 9.866797 10.560051 33.023544 35.241356 -81.795868 -33.190151 -136.822281 -41.898918 -54.510860 -38.306828 24.160599 -1.099957 15.396934 6.562241 1.308815 0.690221 55.171200 -19.022488 7.101292 19.251030 3.182534 1.816830 8.387967 -2.323820 -0.707233 41.277763 -10.695046 3.085568 
-0.814525 32.537365 -1.001142 -174.783249 1.812548 -7.005228 0.000000 0.000000 0.000000 -16.984703 0.979613 6.690474 -42.903950 7.870829 0.473695 -28.080011 0.869120 0.390728 41.188133 29.987345 -9.365910 -41.379883 -54.913635 -26.032555 -81.431114 42.998474 -1.779492 82.814072 16.382875 -16.595011 -19.553165 -30.000000 10.423834 7.128206 32.765354 33.931736 -79.289452 -32.822098 -135.534851 -41.398308 -54.546761 -38.303291 25.131403 -0.769481 15.411704 6.997396 0.723469 0.477492 54.840611 -18.380861 5.892081 20.193628 3.437092 1.897429 8.484368 -2.762892 -0.808453 40.813602 -10.812432 2.551886 
-0.808630 32.913036 -1.067768 -174.861877 1.832162 -6.946661 0.000000 0.000000 0.000000 -17.274258 1.008710 6.690647 -43.160080 8.691022 0.544223 -27.824863 0.712855 0.576249 40.237526 29.988413 -8.047051 -36.539532 -55.032677 -28.483421 -78.454422 43.194702 -4.767653 83.265663 16.002827 -16.568079 -19.145351 -30.000000 11.092216 3.250703 32.018654 32.744259 -76.521843 -32.195396 -133.788727 -40.902180 -54.424240 -38.825653 25.902224 -0.466353 15.397655 7.575080 0.243998 0.396828 54.733299 -17.929512 4.593671 21.099527 3.905506 2.022706 8.523954 -3.387949 -0.941065 40.349426 -11.242639 1.148224 
-0.802818 33.304535 -1.127265 -174.856247 1.745490 -6.790193 0.000000 0.000000 0.000000 -17.614252 1.105679 6.700604 -43.282581 9.335445 0.594018 -27.535383 0.332011 0.634812 39.155636 29.986307 -6.837792 -32.193157 -54.924496 -30.588572 -75.384392 43.753613 -7.906034 83.683022 15.666526 -16.531630 -19.027174 -30.000000 11.892673 -2.430578 30.860821 31.228109 -73.067352 -31.211269 -131.547089 -41.003120 -54.378391 -38.982578 26.560452 -0.086744 15.439626 8.072863 -0.057501 0.275129 54.878830 -17.561331 4.948525 21.799942 4.529752 2.201888 8.816761 -4.081174 -1.077448 39.873474 -11.334107 0.708421 
-0.807514 33.717381 -1.185361 -174.758255 1.668015 -6.760621 0.000000 0.000000 0.000000 -17.982344 1.289855 6.740083 -43.263035 9.784588 0.624540 -27.245079 0.068352 0.849620 38.232811 29.993320 -5.724237 -27.750513 -54.626816 -32.654190 -72.035309 44.227982 -11.563635 84.219849 15.259071 -16.537886 -18.977167 -30.000000 12.703663 -8.477304 29.602591 29.883492 -69.457886 -29.733515 -129.481430 -41.890568 -54.481716 -38.446091 27.193014 0.353246 15.536645 8.507572 -0.439463 0.158633 54.997673 -17.075459 6.142519 22.313334 5.175185 2.410563 9.378849 -4.811430 -1.191796 39.462967 -11.045101 -0.181037 
-0.816191 34.116974 -1.255440 -174.779343 1.715835 -6.946371 0.000000 0.000000 0.000000 -18.174332 1.396478 6.759842 -43.174763 10.223955 0.655097 -26.895008 -0.019525 1.406250 37.447525 29.993757 -4.598257 -22.867441 -54.179012 -34.810959 -68.370651 44.849846 -15.135262 84.283714 15.213184 -16.663525 -18.542295 -30.000000 13.679969 -14.088843 28.090109 29.126652 -66.154350 -27.760288 -128.209290 -43.183357 -54.708096 -37.305649 27.998274 0.734993 15.569423 8.814832 -0.955626 0.007948 54.958900 -16.454384 7.255570 22.859926 5.575615 2.505735 9.879077 -5.378812 -1.281508 39.336075 -10.964338 -2.985151 
-0.806278 34.475121 -1.333464 -174.987793 1.995947 -7.181860 0.000000 0.000000 0.000000 -18.071379 1.280157 6.740083 -43.347599 10.682826 0.697088 -26.385202 0.039033 2.226569 36.628368 29.993696 -3.348615 -17.878904 -53.064262 -36.703568 -65.034378 45.542667 -19.060331 84.336395 15.178158 -16.751320 -17.903036 -29.878481 14.612998 -18.759388 26.465734 28.971552 -63.333736 -25.612518 -127.826538 -45.002380 -55.062344 -35.466194 28.989567 0.772937 15.452509 9.010177 -1.395177 -0.115619 54.853207 -15.818659 7.982261 23.516697 5.584275 2.513795 10.149980 -5.740961 -1.329542 40.847904 -10.166148 -2.567319 
-0.790238 34.815388 -1.415182 -175.294968 1.948611 -6.918014 0.000000 0.000000 0.000000 -17.797554 1.202596 6.730102 -43.567677 10.897629 0.706702 -25.890087 -0.234108 2.734392 35.794212 29.996466 -1.947574 -11.486444 -52.330753 -39.158352 -60.892632 46.308155 -24.064840 84.549667 15.027630 -16.844877 -17.730156 -28.454441 15.151803 -22.074669 24.837557 29.288630 -60.918861 -23.858166 -127.754303 -46.620579 -55.352303 -33.773781 29.955353 1.173499 15.462155 9.132000 -1.609065 -0.174122 54.882507 -15.505295 8.915118 24.184711 5.936392 2.618068 10.686265 -5.611583 -1.296841 40.517864 -11.360171 -2.882729 
-0.787478 35.122189 -1.515371 -175.834137 2.093549 -7.026050 0.000000 0.000000 0.000000 -17.192541 1.037787 6.700414 -43.754810 11.239353 0.727768 -25.490616 -0.380231 3.291072 35.247292 29.992102 -0.920093 -6.909865 -50.897381 -40.420242 -57.769024 46.841751 -28.751207 84.821220 14.907960 -16.580011 -17.630560 -27.059599 15.635737 -25.557901 23.743565 29.422871 -58.837620 -21.794533 -127.404846 -47.723400 -55.493420 -32.823566 30.984945 1.338783 15.362192 9.408261 -1.873253 -0.273711 54.866154 -15.275261 9.125082 25.126730 5.986239 2.637678 10.941310 -5.582922 -1.258140 40.508205 -11.528234 -2.565248 
-0.793385 35.503349 -1.581934 -175.893677 2.247228 -7.310144 0.000000 0.000000 0.000000 -16.913561 0.921436 6.680704 -43.745697 11.483399 0.758437 -25.282022 -0.272821 3.847660 34.934681 29.998846 -0.476181 -4.271041 -49.179024 -40.716831 -54.788044 47.464413 -33.006390 84.652962 15.121086 -16.371483 -17.746571 -26.109810 15.885403 -28.983973 22.876684 29.565424 -56.556400 -19.131203 -126.733574 -48.140274 -55.506641 -32.735725 31.319830 1.525870 15.350036 9.856663 -2.119034 -0.305210 54.872997 -15.268708 8.788898 25.585493 6.064110 2.662042 10.999131 -5.728974 -1.280129 40.722912 -11.183856 -2.658286 
